<?xml version="1.0"?>
<svg xmlns="http://www.w3.org/2000/svg" id="Layer_5" enable-background="new 0 0 64 64" height="56px" viewBox="0 0 64 64" width="56px" class=""><g><path d="m43.647 39.663.496 1.938c.68-.174 1.341-.365 1.981-.572l-.616-1.903c-.6.194-1.222.374-1.861.537z" data-original="#000000" class="active-path" data-old_color="#000000" fill="#403E3E"/><path d="m35.929 40.862.143 1.995c.682-.049 1.358-.11 2.029-.183l-.217-1.988c-.647.07-1.299.129-1.955.176z" data-original="#000000" class="active-path" data-old_color="#000000" fill="#403E3E"/><path d="m39.824 40.432.301 1.978c.683-.104 1.356-.222 2.016-.354l-.393-1.961c-.629.125-1.272.238-1.924.337z" data-original="#000000" class="active-path" data-old_color="#000000" fill="#403E3E"/><path d="m35.929 56.862.143 1.995c.682-.049 1.358-.11 2.029-.183l-.217-1.988c-.647.07-1.299.129-1.955.176z" data-original="#000000" class="active-path" data-old_color="#000000" fill="#403E3E"/><path d="m39.824 56.432.301 1.978c.683-.104 1.356-.222 2.016-.354l-.393-1.961c-.629.125-1.272.238-1.924.337z" data-original="#000000" class="active-path" data-old_color="#000000" fill="#403E3E"/><path d="m43.647 55.663.496 1.938c.68-.174 1.341-.365 1.981-.572l-.616-1.903c-.6.194-1.222.374-1.861.537z" data-original="#000000" class="active-path" data-old_color="#000000" fill="#403E3E"/><path d="m28.121 48.862c-.656-.047-1.309-.106-1.955-.176l-.217 1.988c.67.073 1.347.134 2.029.183z" data-original="#000000" class="active-path" data-old_color="#000000" fill="#403E3E"/><path d="m24.226 48.432c-.652-.099-1.294-.211-1.924-.337l-.393 1.961c.66.132 1.333.25 2.016.354z" data-original="#000000" class="active-path" data-old_color="#000000" fill="#403E3E"/><path d="m20.402 47.663c-.639-.164-1.26-.343-1.861-.538l-.616 1.903c.64.207 1.301.397 1.981.572z" data-original="#000000" class="active-path" data-old_color="#000000" fill="#403E3E"/><path d="m32 35c1.433 0 14-.112 14-4s-12.567-4-14-4-14 .112-14 4 12.567 4 14 4zm0-6c6.929 0 11.228 1.233 11.945 2-.717.767-5.016 2-11.945 2s-11.228-1.233-11.945-2c.717-.767 5.016-2 11.945-2z" data-original="#000000" class="active-path" data-old_color="#000000" fill="#403E3E"/><path d="m52 31c0-3.56-4.837-5.996-11-7.178v-22.822h-11.414l-6.586 6.586v16.236c-6.163 1.182-11 3.618-11 7.178v3h-10v18h10v3c0 5.196 10.305 8 20 8s20-2.804 20-8v-3h10v-18h-10zm-38 11.64c3.463 2.851 10.892 4.36 18 4.36s14.537-1.509 18-4.36v4.36c0 2.838-7.392 6-18 6s-18-3.162-18-6zm18 2.36c-10.608 0-18-3.162-18-6v-4.36c3.463 2.851 10.892 4.36 18 4.36s14.537-1.509 18-4.36v4.36c0 2.838-7.392 6-18 6zm-3-40.586v2.586h-2.586zm-4 4.586h6v-6h8v20.49c-2.266-.324-4.65-.49-7-.49s-4.734.166-7 .49zm7 16c10.608 0 18 3.162 18 6s-7.392 6-18 6-18-3.162-18-6 7.392-6 18-6zm-28 25v-14h8v14zm28 11c-10.608 0-18-3.162-18-6v-4.36c3.463 2.851 10.892 4.36 18 4.36s14.537-1.509 18-4.36v4.36c0 2.838-7.392 6-18 6zm28-25v14h-8v-14z" data-original="#000000" class="active-path" data-old_color="#000000" fill="#403E3E"/><path d="m19 1h-11.414l-6.586 6.586v15.414h18zm-12 3.414v2.586h-2.586zm10 16.586h-14v-12h6v-6h8z" data-original="#000000" class="active-path" data-old_color="#000000" fill="#403E3E"/><path d="m11 5h4v2h-4z" data-original="#000000" class="active-path" data-old_color="#000000" fill="#403E3E"/><path d="m11 9h4v2h-4z" data-original="#000000" class="active-path" data-old_color="#000000" fill="#403E3E"/><path d="m5 13h10v2h-10z" data-original="#000000" class="active-path" data-old_color="#000000" fill="#403E3E"/><path d="m5 17h10v2h-10z" data-original="#000000" class="active-path" data-old_color="#000000" fill="#403E3E"/><path d="m33 5h4v2h-4z" data-original="#000000" class="active-path" data-old_color="#000000" fill="#403E3E"/><path d="m33 9h4v2h-4z" data-original="#000000" class="active-path" data-old_color="#000000" fill="#403E3E"/><path d="m27 13h10v2h-10z" data-original="#000000" class="active-path" data-old_color="#000000" fill="#403E3E"/><path d="m27 17h10v2h-10z" data-original="#000000" class="active-path" data-old_color="#000000" fill="#403E3E"/><path d="m51.586 1-6.586 6.586v15.414h18v-22zm-.586 3.414v2.586h-2.586zm10 16.586h-14v-12h6v-6h8z" data-original="#000000" class="active-path" data-old_color="#000000" fill="#403E3E"/><path d="m55 5h4v2h-4z" data-original="#000000" class="active-path" data-old_color="#000000" fill="#403E3E"/><path d="m55 9h4v2h-4z" data-original="#000000" class="active-path" data-old_color="#000000" fill="#403E3E"/><path d="m49 13h10v2h-10z" data-original="#000000" class="active-path" data-old_color="#000000" fill="#403E3E"/><path d="m49 17h10v2h-10z" data-original="#000000" class="active-path" data-old_color="#000000" fill="#403E3E"/><path d="m54 38h4v2h-4z" data-original="#000000" class="active-path" data-old_color="#000000" fill="#403E3E"/><path d="m54 42h4v2h-4z" data-original="#000000" class="active-path" data-old_color="#000000" fill="#403E3E"/><path d="m54 46h4v2h-4z" data-original="#000000" class="active-path" data-old_color="#000000" fill="#403E3E"/><path d="m6 38h4v2h-4z" data-original="#000000" class="active-path" data-old_color="#000000" fill="#403E3E"/><path d="m6 42h4v2h-4z" data-original="#000000" class="active-path" data-old_color="#000000" fill="#403E3E"/><path d="m6 46h4v2h-4z" data-original="#000000" class="active-path" data-old_color="#000000" fill="#403E3E"/></g> </svg>
